<svg width="18" height="17" viewBox="0 0 18 17" fill="none" xmlns="http://www.w3.org/2000/svg">
<path fill-rule="evenodd" clip-rule="evenodd" d="M12.9731 11.1916L16.1365 14.3791C16.4177 14.6625 16.4177 15.0875 16.1365 15.3708C15.9959 15.5125 15.785 15.5833 15.6444 15.5833C15.5038 15.5833 15.2929 15.5125 15.1523 15.3708L11.9889 12.1833C10.9344 12.9625 9.66909 13.4583 8.26314 13.4583C4.95915 13.4583 2.28784 10.7666 2.28784 7.43746C2.28784 4.10829 4.95915 1.41663 8.26314 1.41663C11.5671 1.41663 14.2384 4.10829 14.2384 7.43746C14.2384 8.85413 13.7464 10.2 12.9731 11.1916ZM8.26314 2.83329C5.73242 2.83329 3.69379 4.88746 3.69379 7.43746C3.69379 9.98746 5.73242 12.0416 8.26314 12.0416C9.5285 12.0416 10.6533 11.5458 11.4968 10.6958C12.3404 9.84579 12.8325 8.71246 12.8325 7.43746C12.8325 4.88746 10.7939 2.83329 8.26314 2.83329Z" fill="black"/>
<mask id="mask0_2_1023" style="mask-type:alpha" maskUnits="userSpaceOnUse" x="2" y="1" width="15" height="15">
<path fill-rule="evenodd" clip-rule="evenodd" d="M12.9731 11.1916L16.1365 14.3791C16.4177 14.6625 16.4177 15.0875 16.1365 15.3708C15.9959 15.5125 15.785 15.5833 15.6444 15.5833C15.5038 15.5833 15.2929 15.5125 15.1523 15.3708L11.9889 12.1833C10.9344 12.9625 9.66909 13.4583 8.26314 13.4583C4.95915 13.4583 2.28784 10.7666 2.28784 7.43746C2.28784 4.10829 4.95915 1.41663 8.26314 1.41663C11.5671 1.41663 14.2384 4.10829 14.2384 7.43746C14.2384 8.85413 13.7464 10.2 12.9731 11.1916ZM8.26314 2.83329C5.73242 2.83329 3.69379 4.88746 3.69379 7.43746C3.69379 9.98746 5.73242 12.0416 8.26314 12.0416C9.5285 12.0416 10.6533 11.5458 11.4968 10.6958C12.3404 9.84579 12.8325 8.71246 12.8325 7.43746C12.8325 4.88746 10.7939 2.83329 8.26314 2.83329Z" fill="white"/>
</mask>
<g mask="url(#mask0_2_1023)">
<rect x="0.881836" width="16.8714" height="17" fill="#6E6B7B"/>
</g>
</svg>
