<svg width="28" height="28" viewBox="0 0 28 28" fill="none" xmlns="http://www.w3.org/2000/svg">
<path fill-rule="evenodd" clip-rule="evenodd" d="M26.8334 14V12.95C26.8334 12.25 26.3667 11.7833 25.6667 11.7833C24.9667 11.7833 24.5001 12.25 24.5001 12.95V14C24.5001 19.8333 19.8334 24.5 14.0001 24.5C8.16675 24.5 3.50008 19.8333 3.50008 14C3.50008 8.16663 8.16675 3.49996 14.0001 3.49996C15.5167 3.49996 16.9167 3.84996 18.3167 4.43329C18.9001 4.66663 19.6001 4.43329 19.8334 3.84996C20.0667 3.26663 19.8334 2.56663 19.2501 2.33329C17.6167 1.51663 15.7501 1.16663 14.0001 1.16663C6.88341 1.16663 1.16675 6.88329 1.16675 14C1.16675 21.1166 6.88341 26.8333 14.0001 26.8333C21.1167 26.8333 26.8334 21.1166 26.8334 14ZM26.0168 2.68327C26.4835 2.21661 27.1835 2.21661 27.6501 2.68327C28.1168 3.14994 28.1168 3.84994 27.6501 4.31661L14.8168 17.1499C14.5835 17.3833 14.2335 17.4999 14.0001 17.4999C13.7668 17.4999 13.4168 17.3833 13.1835 17.1499L9.68346 13.6499C9.21679 13.1833 9.21679 12.4833 9.68346 12.0166C10.1501 11.5499 10.8501 11.5499 11.3168 12.0166L14.0001 14.6999L26.0168 2.68327Z" fill="black"/>
<mask id="mask0_2_2000" style="mask-type:alpha" maskUnits="userSpaceOnUse" x="1" y="1" width="28" height="26">
<path fill-rule="evenodd" clip-rule="evenodd" d="M26.8334 14V12.95C26.8334 12.25 26.3667 11.7833 25.6667 11.7833C24.9667 11.7833 24.5001 12.25 24.5001 12.95V14C24.5001 19.8333 19.8334 24.5 14.0001 24.5C8.16675 24.5 3.50008 19.8333 3.50008 14C3.50008 8.16663 8.16675 3.49996 14.0001 3.49996C15.5167 3.49996 16.9167 3.84996 18.3167 4.43329C18.9001 4.66663 19.6001 4.43329 19.8334 3.84996C20.0667 3.26663 19.8334 2.56663 19.2501 2.33329C17.6167 1.51663 15.7501 1.16663 14.0001 1.16663C6.88341 1.16663 1.16675 6.88329 1.16675 14C1.16675 21.1166 6.88341 26.8333 14.0001 26.8333C21.1167 26.8333 26.8334 21.1166 26.8334 14ZM26.0168 2.68327C26.4835 2.21661 27.1835 2.21661 27.6501 2.68327C28.1168 3.14994 28.1168 3.84994 27.6501 4.31661L14.8168 17.1499C14.5835 17.3833 14.2335 17.4999 14.0001 17.4999C13.7668 17.4999 13.4168 17.3833 13.1835 17.1499L9.68346 13.6499C9.21679 13.1833 9.21679 12.4833 9.68346 12.0166C10.1501 11.5499 10.8501 11.5499 11.3168 12.0166L14.0001 14.6999L26.0168 2.68327Z" fill="white"/>
</mask>
<g mask="url(#mask0_2_2000)">
<rect width="28" height="28" fill="#28C76F"/>
</g>
</svg>
