<svg width="24" height="24" viewBox="0 0 24 24" fill="none" xmlns="http://www.w3.org/2000/svg">
<path fill-rule="evenodd" clip-rule="evenodd" d="M12 1.00012C5.9 1.00012 1 5.90012 1 12.0001C1 18.1001 5.9 23.0001 12 23.0001C18.1 23.0001 23 18.1001 23 12.0001C23 5.90012 18.1 1.00012 12 1.00012ZM12 20.9999C7 20.9999 3 16.9999 3 11.9999C3 6.99987 7 2.99987 12 2.99987C17 2.99987 21 6.99987 21 11.9999C21 16.9999 17 20.9999 12 20.9999ZM15.7004 15.6998C16.1004 15.2998 16.1004 14.6998 15.7004 14.2998L13.0004 11.5998V5.99978C13.0004 5.39978 12.6004 4.99978 12.0004 4.99978C11.4004 4.99978 11.0004 5.39978 11.0004 5.99978V11.9998C11.0004 12.2998 11.1004 12.4998 11.3004 12.6998L14.3004 15.6998C14.5004 15.8998 14.7004 15.9998 15.0004 15.9998C15.3004 15.9998 15.5004 15.8998 15.7004 15.6998Z" fill="black"/>
<mask id="mask0_2_2141" style="mask-type:alpha" maskUnits="userSpaceOnUse" x="1" y="1" width="22" height="23">
<path fill-rule="evenodd" clip-rule="evenodd" d="M12 1.00012C5.9 1.00012 1 5.90012 1 12.0001C1 18.1001 5.9 23.0001 12 23.0001C18.1 23.0001 23 18.1001 23 12.0001C23 5.90012 18.1 1.00012 12 1.00012ZM12 20.9999C7 20.9999 3 16.9999 3 11.9999C3 6.99987 7 2.99987 12 2.99987C17 2.99987 21 6.99987 21 11.9999C21 16.9999 17 20.9999 12 20.9999ZM15.7004 15.6998C16.1004 15.2998 16.1004 14.6998 15.7004 14.2998L13.0004 11.5998V5.99978C13.0004 5.39978 12.6004 4.99978 12.0004 4.99978C11.4004 4.99978 11.0004 5.39978 11.0004 5.99978V11.9998C11.0004 12.2998 11.1004 12.4998 11.3004 12.6998L14.3004 15.6998C14.5004 15.8998 14.7004 15.9998 15.0004 15.9998C15.3004 15.9998 15.5004 15.8998 15.7004 15.6998Z" fill="white"/>
</mask>
<g mask="url(#mask0_2_2141)">
<rect width="24" height="24" fill="#6E6B7B"/>
</g>
</svg>
