<svg width="24" height="24" viewBox="0 0 24 24" fill="none" xmlns="http://www.w3.org/2000/svg">
<path fill-rule="evenodd" clip-rule="evenodd" d="M21.5998 8.21692L12.5998 1.22487C12.1998 0.925207 11.6998 0.925207 11.3998 1.22487L2.39976 8.21692C2.09976 8.41669 1.99976 8.71635 1.99976 9.01601V20.0035C1.99976 21.7016 3.29976 23.0001 4.99976 23.0001H18.9998C20.6998 23.0001 21.9998 21.7016 21.9998 20.0035V9.01601C21.9998 8.71635 21.8998 8.41669 21.5998 8.21692ZM13.9994 21.0019H9.99941V13.011H13.9994V21.0019ZM18.9995 21.0021C19.5995 21.0021 19.9995 20.6025 19.9995 20.0032V9.51513L11.9995 3.32217L3.99951 9.51513V20.0032C3.99951 20.6025 4.39951 21.0021 4.99951 21.0021H7.99951V12.0123C7.99951 11.413 8.39951 11.0134 8.99951 11.0134H14.9995C15.5995 11.0134 15.9995 11.413 15.9995 12.0123V21.0021H18.9995Z" fill="black"/>
<mask id="mask0_2_2130" style="mask-type:alpha" maskUnits="userSpaceOnUse" x="1" y="1" width="21" height="23">
<path fill-rule="evenodd" clip-rule="evenodd" d="M21.5998 8.21692L12.5998 1.22487C12.1998 0.925207 11.6998 0.925207 11.3998 1.22487L2.39976 8.21692C2.09976 8.41669 1.99976 8.71635 1.99976 9.01601V20.0035C1.99976 21.7016 3.29976 23.0001 4.99976 23.0001H18.9998C20.6998 23.0001 21.9998 21.7016 21.9998 20.0035V9.01601C21.9998 8.71635 21.8998 8.41669 21.5998 8.21692ZM13.9994 21.0019H9.99941V13.011H13.9994V21.0019ZM18.9995 21.0021C19.5995 21.0021 19.9995 20.6025 19.9995 20.0032V9.51513L11.9995 3.32217L3.99951 9.51513V20.0032C3.99951 20.6025 4.39951 21.0021 4.99951 21.0021H7.99951V12.0123C7.99951 11.413 8.39951 11.0134 8.99951 11.0134H14.9995C15.5995 11.0134 15.9995 11.413 15.9995 12.0123V21.0021H18.9995Z" fill="white"/>
</mask>
<g mask="url(#mask0_2_2130)">
<rect width="24" height="24" fill="#6E6B7B"/>
</g>
</svg>
