<svg width="18" height="18" viewBox="0 0 18 18" fill="none" xmlns="http://www.w3.org/2000/svg">
<path fill-rule="evenodd" clip-rule="evenodd" d="M9 2.25C14.6367 2.25 17.7933 8.4 17.9436 8.7C18.0188 8.85 18.0188 9.15 17.9436 9.3C17.7933 9.6 14.6367 15.75 9 15.75C3.6944 15.75 0.586118 10.3014 0.113878 9.47355L0.113873 9.47354L0.113863 9.47353C0.084397 9.42187 0.0651964 9.38822 0.0563674 9.375C-0.0187891 9.15 -0.0187891 8.925 0.0563674 8.7C0.206681 8.4 3.36326 2.25 9 2.25ZM1.55956 9C2.31112 10.2 4.9416 14.25 9.00006 14.25C13.0585 14.25 15.689 10.2 16.4406 9C15.689 7.8 13.0585 3.75 9.00006 3.75C4.9416 3.75 2.23597 7.8 1.55956 9ZM8.99999 6C7.34654 6 5.99372 7.35 5.99372 9C5.99372 10.65 7.34654 12 8.99999 12C10.6534 12 12.0063 10.65 12.0063 9C12.0063 7.35 10.6534 6 8.99999 6ZM7.49692 9C7.49692 9.825 8.17333 10.5 9.00006 10.5C9.82678 10.5 10.5032 9.825 10.5032 9C10.5032 8.175 9.82678 7.5 9.00006 7.5C8.17333 7.5 7.49692 8.175 7.49692 9Z" fill="black"/>
<mask id="mask0_2_2056" style="mask-type:alpha" maskUnits="userSpaceOnUse" x="0" y="2" width="18" height="14">
<path fill-rule="evenodd" clip-rule="evenodd" d="M9 2.25C14.6367 2.25 17.7933 8.4 17.9436 8.7C18.0188 8.85 18.0188 9.15 17.9436 9.3C17.7933 9.6 14.6367 15.75 9 15.75C3.6944 15.75 0.586118 10.3014 0.113878 9.47355L0.113873 9.47354L0.113863 9.47353C0.084397 9.42187 0.0651964 9.38822 0.0563674 9.375C-0.0187891 9.15 -0.0187891 8.925 0.0563674 8.7C0.206681 8.4 3.36326 2.25 9 2.25ZM1.55956 9C2.31112 10.2 4.9416 14.25 9.00006 14.25C13.0585 14.25 15.689 10.2 16.4406 9C15.689 7.8 13.0585 3.75 9.00006 3.75C4.9416 3.75 2.23597 7.8 1.55956 9ZM8.99999 6C7.34654 6 5.99372 7.35 5.99372 9C5.99372 10.65 7.34654 12 8.99999 12C10.6534 12 12.0063 10.65 12.0063 9C12.0063 7.35 10.6534 6 8.99999 6ZM7.49692 9C7.49692 9.825 8.17333 10.5 9.00006 10.5C9.82678 10.5 10.5032 9.825 10.5032 9C10.5032 8.175 9.82678 7.5 9.00006 7.5C8.17333 7.5 7.49692 8.175 7.49692 9Z" fill="white"/>
</mask>
<g mask="url(#mask0_2_2056)">
<rect width="18" height="18" fill="#18A0FB"/>
</g>
</svg>
