<svg width="37" height="35" viewBox="0 0 37 35" fill="none" xmlns="http://www.w3.org/2000/svg">
<path d="M23.1882 27.744C26.3077 27.744 28.8457 30.282 28.8457 33.4016C28.8457 33.7921 29.1624 34.1088 29.5529 34.1088C29.9434 34.1088 30.2601 33.7921 30.2601 33.4016C30.2601 30.282 32.7981 27.744 35.9177 27.744C36.3082 27.744 36.6249 27.4273 36.6249 27.0368C36.6249 26.6463 36.3082 26.3296 35.9177 26.3296C32.7981 26.3296 30.2601 23.7916 30.2601 20.6721C30.2601 20.2816 29.9434 19.9649 29.5529 19.9649C29.1624 19.9649 28.8457 20.2816 28.8457 20.6721C28.8457 23.7916 26.3077 26.3296 23.1882 26.3296C22.7977 26.3296 22.481 26.6463 22.481 27.0368C22.481 27.4273 22.7977 27.744 23.1882 27.744ZM29.5529 23.7534C30.2471 25.1815 31.4082 26.3426 32.8363 27.0368C31.4082 27.731 30.2472 28.8921 29.5529 30.3202C28.8587 28.8921 27.6977 27.7311 26.2695 27.0368C27.6977 26.3426 28.8587 25.1816 29.5529 23.7534Z" fill="#FDF6F6"/>
<path d="M1.12379 6.52828C3.07352 6.52828 4.65976 8.11452 4.65976 10.0642C4.65976 10.4548 4.97637 10.7714 5.36695 10.7714C5.75754 10.7714 6.07415 10.4548 6.07415 10.0642C6.07415 8.11452 7.66038 6.52828 9.61012 6.52828C10.0007 6.52828 10.3173 6.2116 10.3173 5.82109C10.3173 5.43057 10.0007 5.11389 9.61012 5.11389C7.66038 5.11389 6.07415 3.52766 6.07415 1.57792C6.07415 1.18741 5.75754 0.870728 5.36695 0.870728C4.97637 0.870728 4.65976 1.18741 4.65976 1.57792C4.65976 3.52766 3.07352 5.11389 1.12379 5.11389C0.733206 5.11389 0.416595 5.43057 0.416595 5.82109C0.416595 6.2116 0.733206 6.52828 1.12379 6.52828ZM5.36695 4.12552C5.78512 4.81927 6.36876 5.40299 7.06245 5.82109C6.36869 6.23918 5.78505 6.8229 5.36695 7.51665C4.94879 6.8229 4.36514 6.23918 3.67146 5.82109C4.36514 5.40299 4.94879 4.81927 5.36695 4.12552Z" fill="#FDF6F6"/>
<path d="M20.1472 20.8842C20.5378 20.8842 20.8544 20.5676 20.8544 20.177C20.8544 19.7865 20.5378 19.4698 20.1472 19.4698C19.7567 19.4698 19.44 19.7865 19.44 20.177C19.44 20.5676 19.7567 20.8842 20.1472 20.8842Z" fill="#FDF6F6"/>
<path d="M22.0339 18.5642C22.2331 18.9001 22.6671 19.0108 23.003 18.8115C24.85 17.7155 26.9682 17.1361 29.1286 17.1361C29.5191 17.1361 29.8358 16.8194 29.8358 16.4289C29.8358 16.0384 29.5191 15.7217 29.1286 15.7217C22.4995 15.7217 17.1063 10.3285 17.1063 3.69944C17.1063 3.30893 16.7897 2.99225 16.3991 2.99225C16.0085 2.99225 15.6919 3.30893 15.6919 3.69944C15.6919 10.3285 10.2987 15.7217 3.66961 15.7217C3.27903 15.7217 2.96242 16.0384 2.96242 16.4289C2.96242 16.8194 3.27903 17.1361 3.66961 17.1361C10.2987 17.1361 15.6919 22.5293 15.6919 29.1584C15.6919 29.5489 16.0085 29.8656 16.3991 29.8656C16.7897 29.8656 17.1063 29.5489 17.1063 29.1584C17.1063 26.998 17.6856 24.8798 18.7816 23.0328C18.9809 22.6969 18.8703 22.263 18.5344 22.0637C18.1983 21.8642 17.7646 21.9751 17.5653 22.311C17.087 23.117 16.6968 23.969 16.3986 24.852C15.0583 20.9005 11.9263 17.7689 7.97466 16.4289C11.9267 15.0888 15.059 11.9566 16.3991 8.00449C17.7391 11.9561 20.8706 15.0881 24.8221 16.4284C23.9391 16.7266 23.0872 17.1168 22.281 17.5952C21.9453 17.7945 21.8345 18.2283 22.0339 18.5642Z" fill="#FDF6F6"/>
</svg>
