<svg width="28" height="28" viewBox="0 0 28 28" fill="none" xmlns="http://www.w3.org/2000/svg">
<g clip-path="url(#clip0_2_1830)">
<path fill-rule="evenodd" clip-rule="evenodd" d="M19.1667 22.1666C19.1667 22.6666 18.8334 22.9999 18.3334 22.9999H1.66671C1.16671 22.9999 0.833374 22.6666 0.833374 22.1666C0.833374 21.6666 1.16671 21.3333 1.66671 21.3333C2.58337 21.3333 3.33337 20.5833 3.33337 19.6666V15.4999C3.33337 11.8333 6.33337 8.83325 10 8.83325C13.6667 8.83325 16.6667 11.8333 16.6667 15.4999V19.6666C16.6667 20.5833 17.4167 21.3333 18.3334 21.3333C18.8334 21.3333 19.1667 21.6666 19.1667 22.1666ZM12.1667 25.9166C11.6667 26.7499 10.8334 27.1666 10 27.1666C9.58337 27.1666 9.16671 27.0833 8.75004 26.8333C8.33338 26.5833 8.08338 26.3333 7.83338 25.9166C7.58338 25.4999 7.75004 24.9999 8.16671 24.7499C8.58338 24.4999 9.08338 24.6666 9.33338 25.0833C9.3586 25.1085 9.38383 25.1413 9.41137 25.1772L9.41138 25.1772C9.47481 25.2599 9.5505 25.3585 9.66671 25.4166C10.0834 25.6666 10.5834 25.4999 10.8334 25.0833C11.0834 24.6666 11.5834 24.5833 12 24.7499C12.4167 24.9166 12.4167 25.4999 12.1667 25.9166ZM15 19.6666C15 20.2499 15.1667 20.8333 15.4167 21.3333H4.58337C4.83337 20.8333 5.00004 20.2499 5.00004 19.6666V15.4999C5.00004 12.7499 7.25004 10.4999 10 10.4999C12.75 10.4999 15 12.7499 15 15.4999V19.6666Z" fill="black"/>
<mask id="mask0_2_1830" style="mask-type:alpha" maskUnits="userSpaceOnUse" x="0" y="8" width="20" height="20">
<path fill-rule="evenodd" clip-rule="evenodd" d="M19.1667 22.1666C19.1667 22.6666 18.8334 22.9999 18.3334 22.9999H1.66671C1.16671 22.9999 0.833374 22.6666 0.833374 22.1666C0.833374 21.6666 1.16671 21.3333 1.66671 21.3333C2.58337 21.3333 3.33337 20.5833 3.33337 19.6666V15.4999C3.33337 11.8333 6.33337 8.83325 10 8.83325C13.6667 8.83325 16.6667 11.8333 16.6667 15.4999V19.6666C16.6667 20.5833 17.4167 21.3333 18.3334 21.3333C18.8334 21.3333 19.1667 21.6666 19.1667 22.1666ZM12.1667 25.9166C11.6667 26.7499 10.8334 27.1666 10 27.1666C9.58337 27.1666 9.16671 27.0833 8.75004 26.8333C8.33338 26.5833 8.08338 26.3333 7.83338 25.9166C7.58338 25.4999 7.75004 24.9999 8.16671 24.7499C8.58338 24.4999 9.08338 24.6666 9.33338 25.0833C9.3586 25.1085 9.38383 25.1413 9.41137 25.1772L9.41138 25.1772C9.47481 25.2599 9.5505 25.3585 9.66671 25.4166C10.0834 25.6666 10.5834 25.4999 10.8334 25.0833C11.0834 24.6666 11.5834 24.5833 12 24.7499C12.4167 24.9166 12.4167 25.4999 12.1667 25.9166ZM15 19.6666C15 20.2499 15.1667 20.8333 15.4167 21.3333H4.58337C4.83337 20.8333 5.00004 20.2499 5.00004 19.6666V15.4999C5.00004 12.7499 7.25004 10.4999 10 10.4999C12.75 10.4999 15 12.7499 15 15.4999V19.6666Z" fill="white"/>
</mask>
<g mask="url(#mask0_2_1830)">
<rect y="8" width="20" height="20" fill="#6E6B7B"/>
</g>
<circle cx="19" cy="9" r="9" fill="#EA5455" stroke="white" stroke-width="2"/>
<path d="M23.4437 11.092H21.9557V13H20.4437V11.092H15.8357V10.012L19.9757 4.6H21.6437L17.7437 9.772H20.4917V8.08H21.9557V9.772H23.4437V11.092Z" fill="white"/>
</g>
<defs>
<clipPath id="clip0_2_1830">
<rect width="28" height="28" fill="white"/>
</clipPath>
</defs>
</svg>
