<svg width="38" height="37" viewBox="0 0 38 37" fill="none" xmlns="http://www.w3.org/2000/svg">
<g clip-path="url(#clip0_2_849)">
<path d="M34.6488 16.605C34.2582 16.605 33.9416 16.9217 33.9416 17.3122C33.9416 17.7027 34.2582 18.0194 34.6488 18.0194C35.2458 18.0194 35.7315 18.505 35.7315 19.102C35.7315 19.6991 35.2458 20.1847 34.6488 20.1847H33.3076C33.187 17.9713 32.5016 15.8347 31.3068 13.9664C30.1169 12.1058 28.4754 10.5875 26.5386 9.54757C26.5842 9.21003 26.6087 8.86775 26.6087 8.52193C26.6087 4.34949 23.2141 0.954956 19.0417 0.954956C14.8692 0.954956 11.4747 4.34949 11.4747 8.52193C11.4747 8.68473 11.4811 8.84653 11.4913 9.0077C11.4787 9.01294 11.466 9.01782 11.4535 9.02312L8.32119 7.20662C7.91844 6.97303 7.43705 6.97233 7.03353 7.20471C6.63 7.43717 6.38913 7.85392 6.38913 8.3196V12.8523C5.46342 14.0073 4.7536 15.2932 4.27363 16.6842H2.89998C1.8179 16.6842 0.937515 17.5645 0.937515 18.6466V23.1373C0.937515 24.2194 1.8179 25.0998 2.89998 25.0998H4.27384C5.14574 27.6193 6.79499 29.8227 8.97591 31.3782V34.525C8.97591 35.3526 9.64923 36.0259 10.4769 36.0259H13.112C13.6769 36.0259 14.1883 35.7139 14.4467 35.2116L15.2216 33.7052C15.6276 33.7435 16.0356 33.7628 16.4401 33.7628H20.4561C20.8605 33.7628 21.2686 33.7435 21.6746 33.7052L22.4494 35.2116C22.7078 35.7139 23.2192 36.0259 23.7841 36.0259H26.4193C27.2469 36.0259 27.9202 35.3526 27.9202 34.525V31.3782C31.1208 29.0976 33.0934 25.5053 33.3068 21.5991H34.6489C36.0257 21.5991 37.1459 20.479 37.1459 19.1021C37.1459 17.7253 36.0257 16.605 34.6488 16.605ZM19.0417 2.36927C22.4342 2.36927 25.1943 5.12931 25.1943 8.52186C25.1943 9.60776 24.914 10.6529 24.3807 11.5803C23.355 11.0192 22.2589 10.6318 21.1358 10.4186C21.2964 10.1217 21.3874 9.78661 21.3874 9.43181C21.3874 8.22194 20.3351 7.2376 19.0417 7.2376C18.5282 7.2376 18.1104 6.88782 18.1104 6.45784C18.1104 6.02787 18.5282 5.67809 19.0417 5.67809C19.5552 5.67809 19.973 6.02787 19.973 6.45784C19.973 6.84836 20.2896 7.16504 20.6802 7.16504C21.0708 7.16504 21.3874 6.84836 21.3874 6.45784C21.3874 5.47845 20.6977 4.64707 19.7489 4.36582V4.26745C19.7489 3.87694 19.4323 3.56026 19.0417 3.56026C18.6511 3.56026 18.3345 3.87694 18.3345 4.26745V4.36582C17.3856 4.64707 16.696 5.47845 16.696 6.45784C16.696 7.66771 17.7482 8.65198 19.0417 8.65198C19.5552 8.65198 19.973 9.00183 19.973 9.43181C19.973 9.86178 19.5552 10.2116 19.0417 10.2116C18.5282 10.2116 18.1104 9.86178 18.1104 9.43181C18.1104 9.04129 17.7938 8.72461 17.4032 8.72461C17.0126 8.72461 16.696 9.04129 16.696 9.43181C16.696 9.78781 16.7876 10.1239 16.9492 10.4215C15.8268 10.6362 14.7316 11.0252 13.7069 11.5876C13.1708 10.6586 12.8891 9.6108 12.8891 8.52186C12.8891 5.12931 15.6491 2.36927 19.0417 2.36927ZM26.8196 30.4195C26.6235 30.5507 26.5058 30.7712 26.5058 31.0072V34.525C26.5058 34.5726 26.4669 34.6114 26.4192 34.6114H23.7841C23.7516 34.6114 23.7221 34.5935 23.7072 34.5646L22.709 32.624C22.5721 32.358 22.2828 32.2066 21.9867 32.2465C21.4794 32.3141 20.9644 32.3484 20.4561 32.3484H16.4401C15.9317 32.3484 15.4167 32.3141 14.9095 32.2465C14.6127 32.2065 14.3239 32.3581 14.1871 32.624L13.1889 34.5646C13.1741 34.5935 13.1446 34.6114 13.112 34.6114H10.4769C10.4291 34.6114 10.3903 34.5726 10.3903 34.525V31.0072C10.3903 30.7712 10.2725 30.5508 10.0764 30.4195C7.86441 28.9388 6.22697 26.7262 5.46582 24.1892C5.37608 23.8901 5.10077 23.6852 4.78847 23.6852H2.89998C2.59779 23.6852 2.3519 23.4393 2.3519 23.1372V21.599H3.34197C3.73256 21.599 4.04917 21.2823 4.04917 20.8918C4.04917 20.5013 3.73256 20.1846 3.34197 20.1846H2.3519V18.6465C2.3519 18.3443 2.59779 18.0984 2.89998 18.0984H4.78854C5.10084 18.0984 5.37615 17.8936 5.46589 17.5945C5.911 16.1108 6.64224 14.7525 7.63931 13.5575C7.74539 13.4304 7.80352 13.2701 7.80352 13.1045V8.54145L11.0539 10.4263C11.2519 10.5412 11.4931 10.553 11.7015 10.4583C11.7086 10.4551 11.7157 10.452 11.7228 10.4488C11.8968 11.1128 12.1615 11.7499 12.5125 12.3467C12.0547 12.6809 11.6166 13.0543 11.2036 13.4674C10.9274 13.7436 10.9274 14.1914 11.2036 14.4676C11.4797 14.7437 11.9275 14.7437 12.2038 14.4676C15.9792 10.6921 22.1223 10.6921 25.8977 14.4676C26.0358 14.6056 26.2168 14.6747 26.3978 14.6747C26.5787 14.6747 26.7598 14.6056 26.8978 14.4676C27.174 14.1914 27.174 13.7436 26.8978 13.4674C26.4809 13.0505 26.0387 12.6742 25.5762 12.3377C25.8304 11.9042 26.039 11.4494 26.2005 10.9784C29.6961 13.013 31.9126 16.8153 31.9126 20.8919C31.9126 24.7232 30.0087 28.2849 26.8196 30.4195Z" fill="#FDF6F6"/>
<path d="M9.68362 15.9408C9.49692 15.9408 9.31517 16.0158 9.18363 16.148C9.05139 16.2796 8.97643 16.462 8.97643 16.648C8.97643 16.834 9.05139 17.0165 9.18363 17.148C9.31517 17.2795 9.49692 17.3552 9.68362 17.3552C9.86961 17.3552 10.0521 17.2795 10.1836 17.148C10.3151 17.0165 10.3908 16.834 10.3908 16.648C10.3908 16.462 10.3151 16.2796 10.1836 16.148C10.0514 16.0158 9.86961 15.9408 9.68362 15.9408Z" fill="black"/>
</g>
<defs>
<clipPath id="clip0_2_849">
<rect width="36.2083" height="36.2083" fill="white" transform="translate(0.937576 0.385437)"/>
</clipPath>
</defs>
</svg>
