<svg width="15" height="14" viewBox="0 0 15 14" fill="none" xmlns="http://www.w3.org/2000/svg">
<path d="M7.27582 1.01913C7.36752 0.833323 7.63248 0.833322 7.72418 1.01913L9.36368 4.34111C9.47292 4.56246 9.6841 4.71589 9.92838 4.75139L13.5944 5.28409C13.7994 5.31389 13.8813 5.56588 13.7329 5.71051L11.0802 8.29631C10.9034 8.46861 10.8228 8.71686 10.8645 8.96016L11.4907 12.6114C11.5258 12.8156 11.3114 12.9713 11.128 12.8749L7.84901 11.151C7.63051 11.0362 7.36949 11.0362 7.15099 11.151L3.87201 12.8749C3.6886 12.9713 3.47425 12.8156 3.50927 12.6114L4.1355 8.96016C4.17723 8.71686 4.09657 8.46861 3.91981 8.29631L1.26705 5.71052C1.11867 5.56588 1.20055 5.31389 1.40561 5.28409L5.07162 4.75139C5.3159 4.71589 5.52708 4.56247 5.63632 4.34111L7.27582 1.01913Z" stroke="#FF9F43" stroke-width="0.5"/>
</svg>
